<?xml version="1.0"?>
<svg version="1.1" xmlns="http://www.w3.org/2000/svg" width="400px" height="200px" style="border: dashed 2px #aaa"><path fill="#f2b022" d="M50.98291015625,96.068359375q0-0.75732421875,0.040283203125-1.49853515625t0.136962890625-1.46630859375q0.064453125-0.37060546875,0.572021484375-0.53173828125t0.845947265625-0.1611328125l0.38671875,0.0322265625q0.46728515625,0.064453125,0.942626953125-0.064453125t0.942626953125-0.12890625q1.095703125,0,2.44921875,0.24169921875t2.537841796875,0.82177734375t1.989990234375,1.522705078125t0.8056640625,2.328369140625t-0.837890625,2.586181640625t-2.11083984375,2.11083984375t-2.7392578125,1.426025390625t-2.69091796875,0.515625q0.12890625,3.10986328125,0.362548828125,6.17138671875t0.797607421875,6.123046875l0.0322265625,0.20947265625q0,0.2255859375-0.201416015625,0.37060546875t-0.475341796875,0.233642578125t-0.555908203125,0.120849609375t-0.459228515625,0.0322265625q-0.40283203125,0-0.974853515625-0.153076171875t-0.700927734375-0.604248046875q-0.37060546875-1.41796875-0.580078125-3.117919921875t-0.30615234375-3.552978515625t-0.136962890625-3.730224609375t-0.040283203125-3.665771484375l0-3.62548828125q0-0.59619140625-0.01611328125-1.24072265625t-0.01611328125-1.30517578125z M54.0283203125,93.4580078125q0,2.20751953125,0.04833984375,4.406982421875t0.11279296875,4.406982421875q0.95068359375-0.193359375,1.941650390625-0.684814453125t1.78857421875-1.168212890625t1.2890625-1.538818359375t0.491455078125-1.812744140625q0-0.85400390625-0.427001953125-1.53076171875t-1.103759765625-1.16015625q-0.66064453125-0.46728515625-1.49853515625-0.72509765625q-0.7412109375-0.2255859375-1.4501953125-0.2255859375l-0.17724609375,0z M65.608452148438,110.7958984375q0-0.91845703125,0.233642578125-1.893310546875t0.7412109375-1.75634765625t1.281005859375-1.27294921875t1.869140625-0.491455078125q0.82177734375,0,1.732177734375,0.281982421875t1.667724609375,0.8056640625t1.232666015625,1.281005859375t0.475341796875,1.69189453125q0,1.1279296875-0.410888671875,2.14306640625t-1.152099609375,1.812744140625t-1.732177734375,1.2568359375t-2.151123046875,0.459228515625q-0.95068359375,0-1.65966796875-0.346435546875t-1.184326171875-0.926513671875t-0.708984375-1.36962890625t-0.233642578125-1.67578125z M67.977104492188,110.763671875q0,0.2900390625,0.088623046875,0.85400390625t0.265869140625,1.103759765625t0.459228515625,0.9345703125t0.684814453125,0.362548828125q0.85400390625-0.0966796875,1.409912109375-0.555908203125t0.90234375-1.119873046875t0.4833984375-1.43408203125t0.136962890625-1.46630859375q0-0.88623046875-0.346435546875-1.482421875t-1.135986328125-0.966796875q0,0.0322265625,0.0322265625,0.0322265625t0.0322265625-0.0322265625l-0.40283203125-0.0966796875q-0.1611328125-0.064453125-0.394775390625-0.14501953125t-0.459228515625-0.3544921875q-0.62841796875,0.2255859375-0.974853515625,0.580078125t-0.523681640625,0.862060546875t-0.217529296875,1.216552734375t-0.040283203125,1.7080078125z M77.817001953125,105.54296875q0-0.322265625,0.4189453125-0.410888671875t0.64453125-0.088623046875q1.41796875,0,2.78759765625-0.24169921875t2.75537109375-0.24169921875q0.12890625,0,0.427001953125,0.01611328125t0.56396484375,0.064453125t0.475341796875,0.1611328125t0.20947265625,0.33837890625q0,0.40283203125-0.193359375,1.16015625t-0.523681640625,1.699951171875t-0.72509765625,1.998046875t-0.78955078125,2.01416015625t-0.7412109375,1.732177734375t-0.555908203125,1.20849609375q0.53173828125,0.0966796875,1.30517578125,0.1611328125t1.46630859375,0.12890625t1.16015625,0.217529296875t0.43505859375,0.378662109375q-0.064453125,0.37060546875-0.66064453125,0.580078125q-0.580078125,0.20947265625-1.4501953125,0.2900390625q-0.53173828125,0.04833984375-1.1279296875,0.04833984375q-0.3544921875,0-0.708984375-0.01611328125q-0.966796875-0.04833984375-1.812744140625-0.1611328125t-1.409912109375-0.314208984375t-0.56396484375-0.427001953125q0-0.0966796875,0.281982421875-0.78955078125t0.69287109375-1.683837890625t0.910400390625-2.1591796875t0.958740234375-2.247802734375t0.8056640625-1.91748046875t0.475341796875-1.16015625q-0.95068359375,0.064453125-1.925537109375,0.1611328125t-1.925537109375,0.0966796875q-0.12890625,0-0.410888671875-0.01611328125t-0.5478515625-0.08056640625t-0.4833984375-0.185302734375t-0.217529296875-0.314208984375z M89.944985351563,110.7958984375q0-0.91845703125,0.233642578125-1.893310546875t0.7412109375-1.75634765625t1.281005859375-1.27294921875t1.869140625-0.491455078125q0.82177734375,0,1.732177734375,0.281982421875t1.667724609375,0.8056640625t1.232666015625,1.281005859375t0.475341796875,1.69189453125q0,1.1279296875-0.410888671875,2.14306640625t-1.152099609375,1.812744140625t-1.732177734375,1.2568359375t-2.151123046875,0.459228515625q-0.95068359375,0-1.65966796875-0.346435546875t-1.184326171875-0.926513671875t-0.708984375-1.36962890625t-0.233642578125-1.67578125z M92.313637695313,110.763671875q0,0.2900390625,0.088623046875,0.85400390625t0.265869140625,1.103759765625t0.459228515625,0.9345703125t0.684814453125,0.362548828125q0.85400390625-0.0966796875,1.409912109375-0.555908203125t0.90234375-1.119873046875t0.4833984375-1.43408203125t0.136962890625-1.46630859375q0-0.88623046875-0.346435546875-1.482421875t-1.135986328125-0.966796875q0,0.0322265625,0.0322265625,0.0322265625t0.0322265625-0.0322265625l-0.40283203125-0.0966796875q-0.1611328125-0.064453125-0.394775390625-0.14501953125t-0.459228515625-0.3544921875q-0.62841796875,0.2255859375-0.974853515625,0.580078125t-0.523681640625,0.862060546875t-0.217529296875,1.216552734375t-0.040283203125,1.7080078125z M102.15353515625,96.068359375q0-0.75732421875,0.040283203125-1.49853515625t0.136962890625-1.46630859375q0.064453125-0.37060546875,0.572021484375-0.53173828125t0.845947265625-0.1611328125l0.38671875,0.0322265625q0.46728515625,0.064453125,0.942626953125-0.064453125t0.942626953125-0.12890625q1.095703125,0,2.44921875,0.24169921875t2.537841796875,0.82177734375t1.989990234375,1.522705078125t0.8056640625,2.328369140625t-0.837890625,2.586181640625t-2.11083984375,2.11083984375t-2.7392578125,1.426025390625t-2.69091796875,0.515625q0.12890625,3.10986328125,0.362548828125,6.17138671875t0.797607421875,6.123046875l0.0322265625,0.20947265625q0,0.2255859375-0.201416015625,0.37060546875t-0.475341796875,0.233642578125t-0.555908203125,0.120849609375t-0.459228515625,0.0322265625q-0.40283203125,0-0.974853515625-0.153076171875t-0.700927734375-0.604248046875q-0.37060546875-1.41796875-0.580078125-3.117919921875t-0.30615234375-3.552978515625t-0.136962890625-3.730224609375t-0.040283203125-3.665771484375l0-3.62548828125q0-0.59619140625-0.01611328125-1.24072265625t-0.01611328125-1.30517578125z M105.1989453125,93.4580078125q0,2.20751953125,0.04833984375,4.406982421875t0.11279296875,4.406982421875q0.95068359375-0.193359375,1.941650390625-0.684814453125t1.78857421875-1.168212890625t1.2890625-1.538818359375t0.491455078125-1.812744140625q0-0.85400390625-0.427001953125-1.53076171875t-1.103759765625-1.16015625q-0.66064453125-0.46728515625-1.49853515625-0.72509765625q-0.7412109375-0.2255859375-1.4501953125-0.2255859375l-0.17724609375,0z M116.77907714844,110.7958984375q0-0.91845703125,0.233642578125-1.893310546875t0.7412109375-1.75634765625t1.281005859375-1.27294921875t1.869140625-0.491455078125q0.82177734375,0,1.732177734375,0.281982421875t1.667724609375,0.8056640625t1.232666015625,1.281005859375t0.475341796875,1.69189453125q0,1.1279296875-0.410888671875,2.14306640625t-1.152099609375,1.812744140625t-1.732177734375,1.2568359375t-2.151123046875,0.459228515625q-0.95068359375,0-1.65966796875-0.346435546875t-1.184326171875-0.926513671875t-0.708984375-1.36962890625t-0.233642578125-1.67578125z M119.14772949219,110.763671875q0,0.2900390625,0.088623046875,0.85400390625t0.265869140625,1.103759765625t0.459228515625,0.9345703125t0.684814453125,0.362548828125q0.85400390625-0.0966796875,1.409912109375-0.555908203125t0.90234375-1.119873046875t0.4833984375-1.43408203125t0.136962890625-1.46630859375q0-0.88623046875-0.346435546875-1.482421875t-1.135986328125-0.966796875q0,0.0322265625,0.0322265625,0.0322265625t0.0322265625-0.0322265625l-0.40283203125-0.0966796875q-0.1611328125-0.064453125-0.394775390625-0.14501953125t-0.459228515625-0.3544921875q-0.62841796875,0.2255859375-0.974853515625,0.580078125t-0.523681640625,0.862060546875t-0.217529296875,1.216552734375t-0.040283203125,1.7080078125z M128.98762695313,110.48974609375q0-1.095703125,0.298095703125-2.11083984375t0.894287109375-1.812744140625t1.490478515625-1.27294921875t2.070556640625-0.475341796875q0.72509765625,0,1.603271484375,0.217529296875t1.651611328125,0.64453125t1.2890625,1.087646484375t0.515625,1.5146484375q0,0.40283203125-0.136962890625,0.6123046875t-0.555908203125,0.20947265625l-0.17724609375-0.0322265625q0.46728515625,1.2568359375,0.8056640625,2.578125t0.66064453125,2.642578125q0.12890625,0.2578125,0.193359375,0.459228515625t0.064453125,0.394775390625q0,0.2578125-0.14501953125,0.427001953125t-0.378662109375,0.249755859375t-0.4833984375,0.11279296875t-0.443115234375,0.0322265625q-0.69287109375,0-1.039306640625-0.24169921875t-0.49951171875-0.66064453125t-0.185302734375-0.942626953125t-0.12890625-1.055419921875q-0.193359375,0.62841796875-0.507568359375,1.224609375t-0.7412109375,1.071533203125t-1.007080078125,0.75732421875t-1.30517578125,0.281982421875q-1.0634765625,0-1.78857421875-0.6123046875t-1.168212890625-1.506591796875t-0.64453125-1.909423828125t-0.201416015625-1.88525390625z M131.27571289063,110.26416015625q0,0.59619140625,0.08056640625,1.2568359375t0.265869140625,1.30517578125t0.475341796875,1.216552734375t0.72509765625,1.007080078125q0.78955078125-0.85400390625,1.168212890625-2.07861328125t0.6767578125-2.360595703125t0.6767578125-1.94970703125t1.168212890625-0.813720703125q0.49951171875,0,0.837890625,0.17724609375q-0.1611328125-0.40283203125-0.53173828125-0.781494140625t-0.829833984375-0.69287109375t-0.95068359375-0.515625t-0.926513671875-0.201416015625q-0.12890625,0-0.298095703125,0.040283203125t-0.265869140625,0.008056640625q-0.66064453125,0.193359375-1.087646484375,0.668701171875t-0.69287109375,1.119873046875t-0.378662109375,1.3212890625t-0.11279296875,1.27294921875z"/><path fill="#" d=""/></svg>
